# xmcd
#
# Track frame offsets: 
#        150
#        15900
#        29270
#        45964
#        56547
#        64737
#        77612
#        90977
#        99572
#        111555
#        122004
#        133762
#        144440
#        154100
#        165782
#        180072
#        191905
#        209950
#
# Disc length: 2966 seconds
#
# Revision: 8
# Processed by: cddbd v1.5.2PL0 Copyright (c) Steve Scherf et al.
# Submitted via: ExactAudioCopy v1.0b4
#
DISCID=e40b9412
DTITLE=Various Artist - Country's Greatest 3CD - CD1
DYEAR=1997
DGENRE=Country
TTITLE0=Skeeter Davis (Mary Frances Penick) - Desperado (unknown Cover
TTITLE0=The eagles 1973)
TTITLE1=Lynn Andersen - Rose garden (1970 Cover Joe South 1969)
TTITLE2=Willie Nelson - Pretty paper (1979 Cover Roy Orbison 1963)
TTITLE3=Jimmie Rodgers - Kisses sweeter than wine (1957 Cover The weav
TTITLE3=ers 1950)
TTITLE4=Johnny Cash - Guess things happen that way (1958)
TTITLE5=Frankie Laine - Moonlight gambler (1956)
TTITLE6=Patsy Cline - Tennessee waltz (1950 Cover Cowboy copas 1947)
TTITLE7=Sandy Posey - Born a woman (1966)
TTITLE8=Billie Jo Spears - Misty blue (1976 Cover Eddy Arnold 1966)
TTITLE9=Buck Owens - Excuse me (I think I´ve got a heartache 1960)
TTITLE10=Dave Duddley - Yellow rose of Texas (1988)
TTITLE11=Stonewall Jackson - Waterloo (1959)
TTITLE12=Pat Boone - Bernardine (1957)
TTITLE13=Gene Autry - Vaya con dios (1953 Cover Les Paul and Mary Ford
TTITLE13=1953)
TTITLE14=Bobby Helms - My special angel (1963 Cover Bobby Helms 1957)
TTITLE15=Freddie Fender - I´m leaving it up to you (1978 Cover Don and D
TTITLE15=ewey 1957)
TTITLE16=Charlie Rich - Let´s take it nice and easy (unknown)
TTITLE17=Glen Campbell - By the time I get to Phoenix (1967 Johnny Riv
TTITLE17=ers 1965)
EXTD=
EXTT0=
EXTT1=
EXTT2=
EXTT3=
EXTT4=
EXTT5=
EXTT6=
EXTT7=
EXTT8=
EXTT9=
EXTT10=
EXTT11=
EXTT12=
EXTT13=
EXTT14=
EXTT15=
EXTT16=
EXTT17=
PLAYORDER=
